<svg width="19" height="19" viewBox="0 0 19 19" fill="none" xmlns="http://www.w3.org/2000/svg">
<path fill-rule="evenodd" clip-rule="evenodd" d="M3.83535 1.32558C3.3863 1.32558 2.92771 1.50757 2.46217 1.96583L2.45715 1.97077L2.45203 1.9756C2.05015 2.35473 1.77191 2.76918 1.5977 3.21196L1.59633 3.21546C1.41762 3.66222 1.32558 4.1525 1.32558 4.67488C1.32558 5.49027 1.51351 6.36567 1.9095 7.30646C2.31099 8.25139 2.86752 9.21535 3.56809 10.1896C4.2803 11.1676 5.0792 12.1042 5.96545 12.9993C6.86079 13.8858 7.79804 14.6852 8.78613 15.407C9.75716 16.1139 10.7299 16.671 11.6952 17.0823C12.6449 17.487 13.5197 17.6744 14.3163 17.6744C14.8508 17.6744 15.3382 17.5756 15.7846 17.3896L15.7882 17.3881C16.1035 17.2589 16.3963 17.0767 16.6739 16.8332C16.7786 16.7413 16.8817 16.6402 16.9833 16.5292L17.2617 16.1773C17.3489 16.048 17.4244 15.914 17.4904 15.7742C17.5996 15.5431 17.6479 15.3127 17.6479 15.094C17.6479 14.9516 17.6195 14.8179 17.5586 14.6625C17.5171 14.5726 17.4458 14.4808 17.306 14.384L17.2995 14.3796L14.3801 12.3068C14.1862 12.1753 14.0261 12.0874 13.8886 12.0312C13.7629 11.9797 13.6713 11.9656 13.6005 11.9656C13.5155 11.9656 13.4301 11.9861 13.3177 12.0545L13.2989 12.0659L13.2796 12.076C13.1576 12.1397 12.9995 12.2578 12.8054 12.4519L12.8023 12.455L12.1319 13.1165C11.9174 13.3301 11.6373 13.4591 11.3028 13.4591C11.1719 13.4591 11.0167 13.4443 10.8492 13.3815L10.8349 13.3762L10.8208 13.3702C10.7807 13.3529 10.7437 13.3359 10.7195 13.3247C10.6909 13.3117 10.6812 13.3074 10.6767 13.3057L10.6439 13.2925L10.6127 13.276C10.2543 13.0863 9.83378 12.7886 9.35463 12.3831L9.35383 12.3824C8.86823 11.9702 8.39597 11.5248 7.91337 11.0512L7.90895 11.0468L7.90453 11.0424C7.43318 10.5619 6.99951 10.0829 6.59509 9.61559L6.59028 9.61002C6.18972 9.13661 5.88295 8.71711 5.69256 8.36804L5.6643 8.31626L5.64572 8.26058C5.64572 8.26058 5.64346 8.25431 5.63197 8.22718C5.63101 8.22488 5.62997 8.22249 5.62887 8.21984C5.61785 8.19386 5.60046 8.15286 5.58313 8.10664L5.56987 8.07129L5.56072 8.0347C5.53216 7.92053 5.51442 7.80414 5.51442 7.6707C5.51442 7.37092 5.61658 7.08478 5.84457 6.85395L6.51704 6.15494L6.52157 6.15041C6.70363 5.96834 6.83024 5.80326 6.90812 5.6655L6.91339 5.65617L6.91896 5.64701C6.98594 5.53698 7.00791 5.44286 7.00791 5.36419C7.00791 5.30741 6.99148 5.2115 6.93778 5.0862L6.93344 5.0761C6.87743 4.93919 6.79067 4.78136 6.65561 4.59378L6.65292 4.59004L4.59828 1.69404C4.51208 1.56952 4.40472 1.48425 4.27342 1.42365L4.26432 1.41945C4.13855 1.35908 3.98998 1.32558 3.83535 1.32558ZM1.5373 1.01618C2.20182 0.364075 2.97866 0 3.83535 0C4.17397 0 4.51856 0.0719172 4.83343 0.222167C5.15877 0.373186 5.45529 0.604403 5.68582 0.936055L7.73282 3.82121C7.91399 4.07312 8.05573 4.31959 8.15833 4.56915C8.26253 4.81372 8.33349 5.08709 8.33349 5.36419C8.33349 5.70607 8.23389 6.03284 8.05688 6.3269C7.90647 6.59065 7.70098 6.84501 7.46358 7.08304L6.85492 7.71573C6.86108 7.73029 6.86935 7.74997 6.87829 7.77277C7.01056 8.00466 7.24476 8.33101 7.5999 8.75096C7.98884 9.20033 8.40136 9.65562 8.8464 10.1095C9.31645 10.5707 9.76167 10.9898 10.2112 11.3715C10.6363 11.7311 10.9675 11.9604 11.2082 12.0912C11.2277 12.0996 11.2456 12.1078 11.2602 12.1144L11.8697 11.5129C12.1114 11.2715 12.3705 11.0587 12.6471 10.9109C12.9361 10.7389 13.2511 10.64 13.6005 10.64C13.8655 10.64 14.1273 10.6966 14.3905 10.8042C14.6405 10.9065 14.8853 11.0473 15.1308 11.2142L15.1364 11.218L18.0641 13.2966C18.3774 13.5143 18.623 13.79 18.776 14.1377L18.7805 14.148L18.7847 14.1585C18.8973 14.44 18.9735 14.745 18.9735 15.094C18.9735 15.5115 18.8804 15.935 18.6891 16.3403C18.5916 16.5466 18.4775 16.7484 18.343 16.9445C18.2349 17.1022 18.1143 17.2554 17.9799 17.4036C17.8418 17.5559 17.6978 17.6983 17.548 17.8297C17.1668 18.1642 16.7503 18.4262 16.2927 18.6139C15.6792 18.8693 15.0184 19 14.3163 19C13.3101 19 12.2584 18.7633 11.1755 18.3019C10.1084 17.8472 9.04886 17.2379 8.00527 16.4781L8.00439 16.4775C6.96081 15.7153 5.9724 14.8718 5.03035 13.9388L5.0258 13.9343C4.09293 12.9924 3.24924 12.0038 2.49535 10.9682L2.4931 10.9652C1.74512 9.92533 1.13567 8.87521 0.689037 7.82376L0.688215 7.82181C0.236121 6.74814 0 5.69736 0 4.67488C0 3.99604 0.119833 3.3381 0.364853 2.72488C0.614071 2.09224 1.00552 1.51915 1.5373 1.01618Z" fill="#7E00A7"/>
</svg>
