<svg width="21" height="21" viewBox="0 0 21 21" fill="none" xmlns="http://www.w3.org/2000/svg">
<path d="M18.5938 7.87499C18.5938 5.75223 18.1652 4.43701 17.3641 3.63592C16.5755 2.84735 15.2888 2.41973 13.2239 2.40656L13.125 2.40625H7.87499C5.75222 2.40625 4.43701 2.83484 3.63592 3.63592C2.83484 4.43701 2.40625 5.75222 2.40625 7.87499V13.125L2.40656 13.2239C2.41973 15.2888 2.84735 16.5755 3.63592 17.3641C4.43701 18.1652 5.75223 18.5938 7.87499 18.5938H13.125C15.2478 18.5938 16.563 18.1652 17.3641 17.3641C18.1652 16.563 18.5938 15.2478 18.5938 13.125V7.87499ZM19.9063 13.125C19.9063 15.3772 19.4598 17.1245 18.2922 18.2922C17.1245 19.4598 15.3772 19.9063 13.125 19.9063H7.87499C5.62277 19.9063 3.8755 19.4598 2.70784 18.2922C1.55843 17.1427 1.10788 15.4317 1.09408 13.2302L1.09375 13.125V7.87499C1.09375 5.62277 1.54018 3.8755 2.70784 2.70784C3.8755 1.54018 5.62277 1.09375 7.87499 1.09375H13.125L13.2302 1.09408C15.4317 1.10788 17.1427 1.55843 18.2922 2.70784C19.4598 3.8755 19.9063 5.62277 19.9063 7.87499V13.125Z" fill="white"/>
<path d="M12.9062 10.5C12.9062 9.17107 11.8289 8.09375 10.5 8.09375C9.17107 8.09375 8.09375 9.17107 8.09375 10.5C8.09375 11.8289 9.17107 12.9062 10.5 12.9062C11.8289 12.9062 12.9062 11.8289 12.9062 10.5ZM14.2187 10.5C14.2187 12.5538 12.5538 14.2187 10.5 14.2187C8.4462 14.2187 6.78125 12.5538 6.78125 10.5C6.78125 8.4462 8.4462 6.78125 10.5 6.78125C12.5538 6.78125 14.2187 8.4462 14.2187 10.5Z" fill="white"/>
<path d="M15.4418 5.25001C15.925 5.25001 16.3168 5.64175 16.3168 6.125C16.3168 6.60825 15.925 6.99999 15.4418 6.99999H15.4316C14.9484 6.99999 14.5566 6.60825 14.5566 6.125C14.5566 5.64175 14.9484 5.25001 15.4316 5.25001H15.4418Z" fill="white"/>
</svg>
