<svg width="20" height="20" viewBox="0 0 20 20" fill="none" xmlns="http://www.w3.org/2000/svg">
<path d="M10 0C4.5 0 0 4.5 0 10C0 15.5 4.5 20 10 20C15.5 20 20 15.5 20 10C20 4.5 15.5 0 10 0ZM7.91667 5.83333C8.41667 3.25 9.33333 1.66667 10 1.66667C10.6667 1.66667 11.5833 3.25 12.0833 5.83333H7.91667ZM13.8333 5.83333C13.5833 4.41667 13.1667 3.08333 12.6667 2.08333C14.5833 2.75 16.25 4.08333 17.25 5.83333H13.8333ZM2.75 5.83333C3.75 4.08333 5.41667 2.75 7.33333 2.08333C6.83333 3.08333 6.41667 4.41667 6.16667 5.83333H2.75ZM14.0833 7.5H18C18.1667 8.25 18.3333 9.16667 18.3333 10C18.3333 10.8333 18.1667 11.75 17.9167 12.5H14C14.1667 11.6667 14.1667 10.8333 14.1667 10C14.1667 9.16667 14.1667 8.33333 14.0833 7.5ZM7.66667 7.5H12.4167C12.5 8.25 12.5833 9.08333 12.5833 10C12.5833 10.9167 12.5 11.75 12.4167 12.5H7.66667C7.58333 11.75 7.5 10.9167 7.5 10C7.5 9.08333 7.58333 8.25 7.66667 7.5ZM2.08333 7.5H6C5.91667 8.33333 5.91667 9.16667 5.91667 10C5.91667 10.8333 5.91667 11.6667 6 12.5H2.08333C1.83333 11.75 1.66667 10.8333 1.66667 10C1.66667 9.16667 1.83333 8.25 2.08333 7.5ZM13.8333 14.1667H17.25C16.25 15.9167 14.5833 17.25 12.6667 17.9167C13.1667 16.9167 13.5833 15.5833 13.8333 14.1667ZM7.91667 14.1667H12.1667C11.6667 16.75 10.75 18.3333 10.0833 18.3333C9.41667 18.3333 8.41667 16.75 7.91667 14.1667ZM2.75 14.1667H6.16667C6.41667 15.5833 6.83333 16.9167 7.33333 17.9167C5.41667 17.25 3.83333 15.9167 2.75 14.1667Z" fill="white"/>
</svg>
