<svg width="21" height="21" viewBox="0 0 21 21" fill="none" xmlns="http://www.w3.org/2000/svg">
<path d="M11.5294 3.80188C11.5218 3.80119 11.5136 3.80119 11.5053 3.80119C11.2207 3.80119 10.9897 4.03219 10.9897 4.31681C10.9897 4.59113 11.2042 4.81594 11.4751 4.83175H11.4764C13.9054 4.99056 15.8152 6.99944 15.8152 9.45381C15.8152 9.58169 15.8098 9.70819 15.8001 9.83331L15.8015 9.81681C15.8015 10.1014 16.0325 10.3324 16.3171 10.3324C16.6017 10.3324 16.8328 10.1014 16.8328 9.81681C16.8389 9.7185 16.8424 9.60369 16.8424 9.4875C16.8424 6.47625 14.5069 4.01019 11.5486 3.80256L11.5307 3.80188H11.5294ZM11.4785 1.13025C11.7872 1.14538 19.0396 1.60325 19.0396 9.81681C19.0396 10.1014 19.2706 10.3324 19.5553 10.3324C19.8399 10.3324 20.0709 10.1014 20.0709 9.81681C20.0812 9.65319 20.0874 9.46275 20.0874 9.27025C20.0874 4.41719 16.3261 0.442062 11.5589 0.102437L11.5294 0.101062C11.5232 0.101062 11.5163 0.100375 11.5094 0.100375C11.2324 0.100375 11.0062 0.31625 10.989 0.5885V0.589875C10.9883 0.597438 10.9883 0.606375 10.9883 0.615312C10.9883 0.891 11.2049 1.1165 11.4771 1.13025H11.4785ZM20.1919 15.1559C20.1169 14.6919 19.9622 14.2753 19.7423 13.9026L19.7512 13.9191C19.6728 13.7913 19.5443 13.7012 19.393 13.6764L19.3903 13.6757L13.2241 12.6968C13.2 12.6926 13.1718 12.6906 13.1436 12.6906C13.0013 12.6906 12.8721 12.7476 12.7786 12.8404C12.3138 13.3079 11.9577 13.8827 11.7501 14.5255L11.7418 14.5558C8.98081 13.4283 6.83238 11.2798 5.73169 8.59169L5.70556 8.5195C6.37794 8.30363 6.95269 7.94681 7.4195 7.48206C7.513 7.38856 7.57075 7.25931 7.57075 7.117C7.57075 7.08881 7.56869 7.06131 7.56387 7.0345L7.56456 7.03725L6.58488 0.871062C6.56012 0.717062 6.47006 0.587813 6.34425 0.510813L6.34219 0.509437C5.995 0.3025 5.59006 0.150563 5.15694 0.0790625L5.137 0.0763125C4.92044 0.0281875 4.67156 0 4.4165 0C4.39931 0 4.38212 -4.98621e-08 4.36494 0.00068745H4.36769H4.36356C1.95938 0.0171875 0.0144375 1.9635 0 4.367V4.36837C0.0103125 13.1416 7.11906 20.251 15.8916 20.2613H15.8929C18.2992 20.2455 20.2455 18.2992 20.2613 15.895V15.8936C20.2613 15.8799 20.2613 15.8634 20.2613 15.8469C20.2613 15.6021 20.2366 15.3636 20.1884 15.1333L20.1926 15.1559H20.1919ZM15.8922 19.2301C7.68831 19.2204 1.04087 12.5723 1.03125 4.36906C1.04431 2.53137 2.53138 1.04431 4.36837 1.03194H4.36975C4.38075 1.03194 4.3945 1.03194 4.40756 1.03194C4.59456 1.03194 4.77675 1.05256 4.95275 1.09106L4.93625 1.08763C5.18787 1.12888 5.41406 1.19831 5.62581 1.29387L5.60862 1.287L6.50375 6.92588C6.072 7.28888 5.5385 7.54531 4.95206 7.64775L4.93213 7.6505C4.68806 7.6945 4.50588 7.90488 4.50588 8.15856C4.50588 8.21906 4.51619 8.27681 4.53544 8.33044L4.53406 8.327C5.75231 11.814 8.44937 14.5104 11.8532 15.7032L11.9364 15.7286C11.9866 15.7465 12.0443 15.7568 12.1048 15.7568C12.3578 15.7568 12.5682 15.5746 12.6115 15.334L12.6122 15.3306C12.7174 14.7242 12.9738 14.1907 13.3416 13.7527L13.3375 13.7576L18.9757 14.6534C19.0671 14.8555 19.1386 15.0906 19.1792 15.3368L19.1812 15.3533C19.2129 15.5038 19.2314 15.6771 19.2314 15.8544C19.2314 15.8668 19.2314 15.8785 19.2314 15.8909V15.8888C19.2204 17.7279 17.7334 19.2163 15.8957 19.2294H15.8943L15.8922 19.2301Z" fill="white"/>
</svg>
