<svg width="18" height="18" viewBox="0 0 18 18" fill="none" xmlns="http://www.w3.org/2000/svg">
<g clip-path="url(#clip0_924_333)">
<path fill-rule="evenodd" clip-rule="evenodd" d="M7.57125 13.7128C4.03312 13.7128 1.16495 10.903 1.16495 7.4313C1.16495 3.95962 4.03312 1.14416 7.57125 1.14416C11.1094 1.14416 13.9781 3.95962 13.9781 7.4313C13.9781 10.903 11.1094 13.7128 7.57125 13.7128ZM17.8245 16.9658L13.1788 12.4061C14.3949 11.0881 15.1425 9.34942 15.1425 7.4313C15.1425 3.32586 11.7529 0 7.57125 0C3.38962 0 0 3.32586 0 7.4313C0 11.5311 3.38962 14.857 7.57125 14.857C9.378 14.857 11.0351 14.2345 12.3368 13.1969L17.001 17.7734C17.2288 17.9977 17.5972 17.9977 17.8245 17.7734C18.0523 17.5547 18.0523 17.1901 17.8245 16.9658Z" fill="#9E9D9D"/>
</g>
<defs>
<clipPath id="clip0_924_333">
<rect width="18" height="17.9473" fill="white"/>
</clipPath>
</defs>
</svg>
