<svg width="26" height="26" viewBox="0 0 26 26" fill="none" xmlns="http://www.w3.org/2000/svg">
<g clip-path="url(#clip0_924_322)">
<path d="M17.3417 21.1442C16.1788 21.1442 15.2749 22.096 15.2749 23.2555C15.2749 24.415 16.2296 25.3669 17.3417 25.3669C18.4538 25.3669 19.4085 24.415 19.4085 23.2555C19.4085 22.096 18.4538 21.1442 17.3417 21.1442ZM17.3417 24.3087C16.7577 24.3087 16.3362 23.8327 16.3362 23.2505C16.3362 22.6682 16.8136 22.1923 17.3417 22.1923C17.8698 22.1923 18.3472 22.6682 18.3472 23.2505C18.3472 23.8327 17.8698 24.3087 17.3417 24.3087Z" fill="black"/>
<path d="M6.06289 21.1442C4.9 21.1442 3.99609 22.096 3.99609 23.2555C3.99609 24.415 4.95078 25.3669 6.06289 25.3669C7.22578 25.3669 8.12969 24.415 8.12969 23.2555C8.12969 22.096 7.175 21.1442 6.06289 21.1442ZM6.06289 24.3087C5.47891 24.3087 5.05742 23.8327 5.05742 23.2505C5.05742 22.6682 5.53477 22.1923 6.06289 22.1923C6.64688 22.1923 7.06836 22.6682 7.06836 23.2505C7.06836 23.8378 6.59609 24.3087 6.06289 24.3087Z" fill="black"/>
<path d="M22.3182 0.556961L21.4955 3.77719H0.71582L4.5498 15.1037C3.26504 15.291 2.30527 16.3746 2.30527 17.767C2.30527 19.2961 3.46816 20.5112 4.95098 20.5112H19.3525V19.5087H4.95098C4.05215 19.5087 3.36152 18.7695 3.36152 17.8176C3.36152 16.8657 4.10293 16.1265 4.95098 16.1265H19.3525H19.4033L23.1611 1.61012H25.2787V0.556961H22.3182ZM18.6111 15.0733H5.6416L2.19863 4.83035H21.2061L18.6111 15.0733Z" fill="black"/>
<path d="M8.50078 7.31134H7.43945V13.2759H8.50078V7.31134Z" fill="black"/>
<path d="M12.2635 7.31134H11.2021V13.2759H12.2635V7.31134Z" fill="black"/>
<path d="M16.0213 7.31134H14.96V13.2759H16.0213V7.31134Z" fill="black"/>
</g>
<defs>
<clipPath id="clip0_924_322">
<rect width="26" height="25.9239" fill="white"/>
</clipPath>
</defs>
</svg>
