<svg width="23" height="17" viewBox="0 0 23 17" fill="none" xmlns="http://www.w3.org/2000/svg">
<path fill-rule="evenodd" clip-rule="evenodd" d="M8.993 10.9886L8.99229 4.57477L15.1165 7.79273L8.993 10.9886ZM22.44 3.46335C22.44 3.46335 22.2183 1.8904 21.539 1.19773C20.677 0.288197 19.7108 0.283917 19.2681 0.231128C16.0962 3.94053e-07 11.3383 0 11.3383 0H11.3284C11.3284 0 6.5705 3.94053e-07 3.39858 0.231128C2.95517 0.283917 1.98971 0.288197 1.12696 1.19773C0.447667 1.8904 0.226666 3.46335 0.226666 3.46335C0.226666 3.46335 0 5.31095 0 7.15784V8.88987C0 10.7375 0.226666 12.5844 0.226666 12.5844C0.226666 12.5844 0.447667 14.1573 1.12696 14.85C1.98971 15.7595 3.12233 15.731 3.62667 15.8259C5.44 16.0013 11.3333 16.0556 11.3333 16.0556C11.3333 16.0556 16.0962 16.0484 19.2681 15.8173C19.7108 15.7638 20.677 15.7595 21.539 14.85C22.2183 14.1573 22.44 12.5844 22.44 12.5844C22.44 12.5844 22.6667 10.7375 22.6667 8.88987V7.15784C22.6667 5.31095 22.44 3.46335 22.44 3.46335Z" fill="white"/>
</svg>
